# xmcd
#
# Track frame offsets:
#	150
#	10650
#	22073
#	33473
#	42406
#	53746
#	66061
#	76186
#	89416
#	98049
#	108587
#	119222
#
# Disc length: 1724 seconds
#
# Revision: 1
# Processed by: cddbd v1.5.2PL0 Copyright (c) Steve Scherf et al.
# Submitted via: audiograbber 1.83.01
#
DISCID=9a06ba0c
DTITLE=Webb Pierce - Country Music Time
DYEAR=1965
DGENRE=Country
TTITLE0=Night Train To Memphis
TTITLE1=I Don't Love You Anymore
TTITLE2=Lonesome 7-7203
TTITLE3=I'm Gonna Change Everything
TTITLE4=I Still Miss Someone
TTITLE5=Try Me One More Time
TTITLE6=Loveing You Then Losing You
TTITLE7=Rainbow At Midnight
TTITLE8=It Took The Heart Out Of Me
TTITLE9=Let Me Live A Little
TTITLE10=Too Long
TTITLE11=I Thank My Lucky Stars
EXTD=
EXTT0=
EXTT1=
EXTT2=
EXTT3=
EXTT4=
EXTT5=
EXTT6=
EXTT7=
EXTT8=
EXTT9=
EXTT10=
EXTT11=
PLAYORDER=
